<?xml version="1.0" standalone="no"?>
<!DOCTYPE svg PUBLIC "-//W3C//DTD SVG 20010904//EN"
 "http://www.w3.org/TR/2001/REC-SVG-20010904/DTD/svg10.dtd">
<svg version="1.0" xmlns="http://www.w3.org/2000/svg"
 width="500.000000pt" height="500.000000pt" viewBox="0 0 500.000000 500.000000"
 preserveAspectRatio="xMidYMid meet">
<metadata>
Created by potrace 1.14, written by Peter Selinger 2001-2017
</metadata>
<g transform="translate(0.000000,500.000000) scale(0.100000,-0.100000)"
fill="#000000" stroke="none">
<path d="M2798 3235 c-34 -19 -37 -60 -9 -122 46 -100 166 -170 272 -159 l55
5 22 -44 c12 -25 24 -62 28 -83 5 -32 3 -38 -18 -47 l-23 -10 0 -355 0 -355
208 -3 207 -2 0 59 c0 44 -4 60 -16 65 -9 3 -69 6 -135 6 l-119 0 0 291 c0
262 -2 293 -17 304 -15 11 -15 16 -2 51 14 36 17 39 51 36 80 -7 171 40 228
120 24 33 30 51 30 93 0 28 -5 56 -12 63 -7 7 -34 12 -60 12 -116 0 -238 -117
-238 -228 0 -12 -6 -36 -14 -54 -8 -18 -18 -42 -21 -53 -6 -15 -11 -6 -24 40
-10 33 -23 71 -31 85 -8 14 -17 48 -21 77 -9 66 -54 130 -126 180 -48 33 -63
38 -121 40 -47 2 -75 -1 -94 -12z"/>
<path d="M632 2781 c-10 -6 -12 -69 -10 -307 3 -335 5 -342 75 -385 32 -20 54
-24 147 -28 155 -5 211 16 254 94 15 26 17 73 20 324 3 235 1 296 -10 302 -7
5 -34 9 -60 9 -80 0 -78 7 -78 -304 0 -242 -2 -275 -17 -287 -22 -19 -157 -19
-175 -1 -10 10 -14 80 -16 295 -2 206 -6 283 -15 289 -16 10 -99 10 -115 -1z"/>
<path d="M1756 2774 c-9 -24 -7 -687 3 -702 5 -9 27 -12 72 -10 l64 3 3 122 3
121 113 4 c100 3 117 6 148 28 64 43 73 69 73 205 0 102 -3 125 -20 154 -45
77 -90 90 -301 91 -129 0 -153 -2 -158 -16z m324 -130 c16 -19 15 -171 -2
-191 -7 -9 -37 -13 -94 -13 l-84 0 0 110 0 110 84 0 c63 0 87 -4 96 -16z"/>
<path d="M2572 2781 c-7 -4 -29 -68 -48 -142 -20 -74 -60 -225 -90 -337 -30
-112 -54 -212 -54 -223 0 -17 7 -19 69 -19 l68 0 19 73 19 72 110 0 110 0 19
-72 19 -73 68 0 c59 0 69 3 69 18 0 9 -21 94 -46 187 -25 94 -65 246 -89 339
-24 93 -50 173 -57 178 -17 10 -169 10 -186 -1z m136 -293 c22 -87 37 -160 34
-163 -7 -7 -147 -7 -154 0 -3 3 13 78 35 166 22 88 41 158 43 157 1 -2 20 -74
42 -160z"/>
<path d="M3712 2782 c-9 -7 -12 -86 -10 -363 l3 -354 68 -3 67 -3 1 283 c0
252 2 279 14 243 8 -22 37 -113 65 -202 l51 -163 64 0 c51 0 66 4 74 18 5 9
32 94 61 187 28 94 55 173 58 177 6 6 9 -125 12 -529 0 -9 20 -13 65 -13 l65
0 0 359 c0 318 -2 360 -16 365 -22 8 -167 7 -180 -2 -6 -4 -37 -95 -69 -202
-32 -107 -60 -197 -62 -199 -7 -9 -15 13 -70 195 -31 104 -61 195 -66 202 -11
14 -173 17 -195 4z"/>
<path d="M1304 2466 c-3 -7 -4 -33 -2 -57 l3 -44 125 0 125 0 0 55 0 55 -123
3 c-98 2 -123 0 -128 -12z"/>
</g>
</svg>
